<?xml version="1.0" encoding="UTF-8" standalone="no"?>
<svg
   data-name="Layer 1"
   width="388.58975"
   height="270.16406"
   viewBox="0 0 388.58976 270.16405"
   version="1.1"
   id="svg16"
   sodipodi:docname="bird.svg"
   inkscape:version="1.3.2 (091e20e, 2023-11-25, custom)"
   xmlns:inkscape="http://www.inkscape.org/namespaces/inkscape"
   xmlns:sodipodi="http://sodipodi.sourceforge.net/DTD/sodipodi-0.dtd"
   xmlns="http://www.w3.org/2000/svg"
   xmlns:svg="http://www.w3.org/2000/svg">
  <defs
     id="defs16" />
  <sodipodi:namedview
     id="namedview16"
     pagecolor="#ffffff"
     bordercolor="#000000"
     borderopacity="0.25"
     inkscape:showpageshadow="2"
     inkscape:pageopacity="0.0"
     inkscape:pagecheckerboard="0"
     inkscape:deskcolor="#d1d1d1"
     inkscape:zoom="1.0365576"
     inkscape:cx="-939.16637"
     inkscape:cy="33.283246"
     inkscape:window-width="2560"
     inkscape:window-height="1351"
     inkscape:window-x="-9"
     inkscape:window-y="-9"
     inkscape:window-maximized="1"
     inkscape:current-layer="svg16" />
  <path
     id="circle5"
     d="m 182.422,0 c -6.00837,0 -10.8789,8.118983 -10.8789,18.132813 0,4.081707 0.81792,7.834866 2.18359,10.865234 a 123.29665,123.29665 0 0 0 -87.404305,117.871093 123.29665,123.29665 0 0 0 0.19531,2.72461 l -61.0664,-9.90625 c -3.42269,-0.55515 -6.90822,-1.11013 -10.3418,-0.62696 -3.43354,0.48321 -6.8707097,2.17284 -8.6210897,5.16602 a 8.651,8.651 0 0 0 5.8847597,12.80859 c -2.6587197,0.0368 -5.2964697,0.3438 -7.6288997,1.5586 -3.28989,1.71347 -5.61956003,5.87605 -4.01563003,9.2207 a 8.27667,8.27667 0 0 0 1.91992003,2.42774 17.60582,17.60582 0 0 0 18.5214897,3.14257 c -2.50047,3.58582 -7.46193,4.11699 -11.7539097,4.94727 -4.29194,0.83028 -9.25261003,3.25835 -9.41211003,7.62695 -0.17922,4.90869 5.66146003,7.51834 10.47070973,8.51758 a 137.41687,137.41687 0 0 0 76.82226,-6.26172 30.98,30.98 0 0 0 5.51172,-2.60937 123.29665,123.29665 0 0 0 116.810555,84.55859 123.29665,123.29665 0 0 0 110.42383,-68.90625 c 4.56864,8.69195 9.13647,17.38423 13.70507,26.07617 1.61312,3.06929 3.26319,6.18867 5.71289,8.64258 2.44974,2.45391 5.86628,4.18505 9.31055,3.78516 a 8.6006,8.6006 0 0 0 6.7793,-12.29883 16.64264,16.64264 0 0 0 5.75195,5.05859 c 3.34648,1.59972 8.07415,0.96199 9.7832,-2.33008 a 8.27455,8.27455 0 0 0 0.78711,-2.99414 17.60592,17.60592 0 0 0 -8.62109,-16.69336 c 4.36853,-0.1565 7.77663,3.49045 11.01953,6.42188 3.24327,2.93143 8.1643,5.43745 11.75195,2.93945 4.03106,-2.8068 2.60719,-9.04391 0.51563,-13.48828 a 137.41884,137.41884 0 0 0 -51.17383,-57.63672 30.97519,30.97519 0 0 0 -2.48047,-1.43359 123.29665,123.29665 0 0 0 0.0312,-0.4375 A 123.29665,123.29665 0 0 0 221.03333,24.117188 c -1.83031,-5.717624 -5.44169,-9.611329 -9.60156,-9.611328 -3.3831,0 -6.36802,2.627628 -8.36328,6.664062 -1.75872,-6.069666 -5.45246,-10.291016 -9.76758,-10.291016 a 6.56326,6.56326 0 0 0 -0.8711,0.146485 C 190.77114,4.544915 186.91648,0 182.422,0 Z m -31.3789,85.960942 a 41.087382,41.087382 0 0 1 28.09375,70.804678 36.966783,36.966783 0 0 0 -56.74219,0 c -0.45987,-0.43901 -0.90878,-0.88791 -1.34766,-1.34765 a 41.087382,41.087382 0 0 1 21.91992,-68.710938 41.087382,41.087382 0 0 1 8.07618,-0.74609 z m 110.93554,0 a 41.087371,41.087371 0 0 1 28.09375,70.804678 36.966919,36.966919 0 0 0 -56.74219,0 c -0.45986,-0.43901 -0.90876,-0.88791 -1.34765,-1.34765 a 41.087371,41.087371 0 0 1 21.91992,-68.710938 41.087371,41.087371 0 0 1 8.07617,-0.74609 z m -55.14258,59.830068 18.24805,53.93946 -45.625,33.70898 z" />
  <circle
     cx="136.74982"
     cy="113.05548"
     id="circle6"
     r="14.13363"
     style="stroke-width:1.13302" />
  <circle
     cx="247.68176"
     cy="113.05548"
     id="circle7"
     r="14.13363"
     style="stroke-width:1.13302" />
</svg>
